<svg xmlns="http://www.w3.org/2000/svg" viewBox="0 0 100 56.7"><path d="M60.4 19.2v18.3h5V41H51.6v-3.5h5v-7.6H43.5v7.6h4.9V41H34.6v-3.5h5.1V19.2h-5.1v-3.6h13.8v3.6h-4.9v7.3h13.1v-7.3h-5v-3.5h13.8v3.5z"/><path d="M31.1 26.7l-4.6-6.6H3.6v3.4H17l2.3 3.2H0v3.4h19.2L17 33.2H3.6v3.4h22.8L31 30h4.7v-3.4h-4.6zm-6.4 6.5h-3.6l2.2-3.2h3.6l-2.2 3.2zm-1.3-6.5l-2.3-3.2h3.6l2.3 3.2h-3.6zM100 26.6H80.8l2.2-3.2h13.3V20H73.6L69 26.6h-4.7V30H69l4.6 6.6h22.8v-3.4H83L80.8 30H100v-3.4zm-24.7 6.6L73.1 30h3.6l2.3 3.2h-3.7zm1.4-6.6h-3.6l2.2-3.2h3.6l-2.2 3.2z"/><g><path d="M24.2 16.7C28.6 6.8 38.5 0 50 0s21.4 6.8 25.8 16.6H72c-1.2-2.2-2.7-4.2-4.4-6C63.1 6.2 56.9 3.4 50 3.4c-6.9 0-13.1 2.8-17.7 7.3-1.7 1.8-3.2 3.8-4.4 6h-3.7zM24.2 40c4.4 9.8 14.3 16.7 25.8 16.7S71.4 49.9 75.8 40H72c-1.2 2.2-2.7 4.2-4.4 6-4.5 4.5-10.8 7.3-17.7 7.3-6.9 0-13.1-2.8-17.7-7.3-1.8-1.8-3.3-3.8-4.4-6h-3.6z"/></g></svg>